<svg id="Layer_1" data-name="Layer 1" xmlns="http://www.w3.org/2000/svg" viewBox="0 0 349.79 114.7"><defs><style>.cls-1{font-size:48px;font-family:SansSerifCollection, Sans Serif Collection;}.cls-2{letter-spacing:-0.02em;}.cls-3{font-size:35.21px;font-family:Ubuntu-Light, Ubuntu;font-weight:300;}</style></defs><text class="cls-1" transform="translate(181.1 -53.68)"><tspan class="cls-2">e</tspan><tspan x="26.11" y="0">xp</tspan><tspan class="cls-2" x="81.02" y="0">r</tspan><tspan x="99.89" y="0">ess</tspan></text><path d="M221.41,81.54h-26c-.12-2.68-.24-5.22-.38-8.5-9.64,9.76-20.84,12.53-33.37,10.13s-21-10.4-27.16-22.34V81.41H107.84V53.31h34.42v8.75l17.31-15c1.9,6,5,10.8,11.05,12.9a20,20,0,0,0,13.95-.07c8.29-3.13,12.58-12.06,10.46-21.58a17.73,17.73,0,0,0-18.66-13.53c-10.09.7-16.06,7.47-17,20l-16.9-14.43c-.16,3.21-.28,5.83-.42,8.65H107.83c-.19-1.57-.32-3.14-.58-4.7-1.18-7.15-6.86-11.5-14.22-10.91C86.21,24,81.79,28.72,81.73,36c-.12,13.75,0,27.5,0,41.24v4.26H54.9V77.34c0-13.37.08-26.75-.07-40.12C54.75,29.55,50.71,24.75,44,23.7c-8.71-1.36-14.74,3.52-14.86,12.42-.16,13.49-.05,27-.06,40.49v4.78H2.56V4.63H28.88l.35,7.83C36.68,5.37,44.77,1.16,54.78,2.21c9.77,1,18.16,4.49,23.74,13.94C86.81,6.33,96.7.21,109.89,2.49c12.82,2.22,22,8.67,24.22,23.47C140.2,14.07,148.26,5.63,160.87,3c12.34-2.53,23.79-.43,34,8.41V4.66h26.54Z"/><path d="M252.27,81.53h-26.4V4.69h26.29V15.47c12-14.14,25.29-17,40.94-8.71-1,2.2-1.83,4.09-2.67,6,7.39-7.62,16.67-10.15,26.76-10.55A57.68,57.68,0,0,1,346.1,8.12L337.41,25.5c-6.28-3.08-12.5-5.18-19.31-4.63-2.64.22-5.5.24-6.07,3.7s1.77,4.72,4.35,5.66c4.45,1.62,9.05,2.87,13.42,4.69,7.93,3.32,14.84,7.81,17.05,17,3,12.45-2.66,24.31-14.59,28.56-15.22,5.43-30.42,5-45.05-2.45a58,58,0,0,1-6.28-4.35l10.59-17.82c4.34,2.33,8.28,5,12.64,6.58a26.84,26.84,0,0,0,10.9,1.05c1.49-.13,3.69-2.53,3.92-4.13s-1.24-4-2.7-5.08c-2.15-1.57-5-2.13-7.46-3.38a142.44,142.44,0,0,1-13.77-7.44c-7.55-5-9.61-12.37-8.27-21,.1-.62.22-1.22.3-1.84,0-.09-.08-.19-.27-.62l-4.36,8.47c-4.3-1.1-8.16-2.69-12.13-3-11.2-.83-17.93,5.67-18,17s0,23,0,34.5Z"/><text class="cls-3" transform="translate(220.41 106.73)">express</text></svg>