<svg id="Layer_1" data-name="Layer 1" xmlns="http://www.w3.org/2000/svg" viewBox="0 0 345.08 131.65"><defs><style>.cls-1{fill:#fff;}.cls-2{font-size:48px;font-family:SansSerifCollection, Sans Serif Collection;}.cls-3{letter-spacing:-0.02em;}.cls-4{fill:#ff0606;}</style></defs><path class="cls-1" d="M128.26,109.53c0,4.26-2.64,7.24-6.35,7.26s-6.62-3.24-6.5-7.53,2.88-7.13,6.6-7.07S128.28,105.26,128.26,109.53Z"/><path class="cls-1" d="M21.58,106.8H10.33c.47-3.34,2.57-4.52,5.4-4.6S20.68,103.31,21.58,106.8Z"/><text class="cls-2" transform="translate(170.08 122.79)"><tspan class="cls-3">e</tspan><tspan x="26.11" y="0">xp</tspan><tspan class="cls-3" x="81.02" y="0">r</tspan><tspan x="99.89" y="0">ess</tspan></text><path class="cls-4" d="M218.85,88.84h-26c-.11-2.68-.23-5.22-.38-8.5-9.63,9.76-20.83,12.52-33.36,10.12s-21-10.39-27.16-22.34V88.71H105.28V60.61H139.7v8.75l17.31-15c1.9,6,5,10.8,11.05,12.9A20,20,0,0,0,182,67.24c8.3-3.14,12.59-12.06,10.47-21.58A17.73,17.73,0,0,0,173.8,32.13c-10.08.69-16.05,7.47-17,20l-16.9-14.43c-.16,3.21-.28,5.83-.42,8.65H105.27c-.19-1.57-.32-3.15-.58-4.71-1.18-7.15-6.86-11.49-14.22-10.9-6.82.54-11.24,5.24-11.3,12.5-.12,13.75,0,27.5,0,41.24v4.26H52.34V84.64c0-13.38.08-26.75-.07-40.12C52.19,36.85,48.15,32.05,41.4,31c-8.71-1.36-14.74,3.51-14.85,12.42-.17,13.49-.05,27-.06,40.49v4.77H0V11.93H26.31l.36,7.83c7.45-7.09,15.54-11.3,25.55-10.25C62,10.53,70.38,14,76,23.44,84.25,13.63,94.13,7.5,107.33,9.79c12.81,2.21,22,8.67,24.22,23.47,6.09-11.89,14.15-20.33,26.76-22.92,12.34-2.53,23.78-.43,34,8.4V12h26.54Z"/><path class="cls-4" d="M249.71,88.83h-26.4V12H249.6V22.76c12-14.13,25.29-17,40.93-8.7l-2.66,6c7.39-7.62,16.66-10.15,26.76-10.56a57.71,57.71,0,0,1,28.91,5.95c-3,5.94-5.79,11.59-8.69,17.38-6.28-3.08-12.5-5.18-19.31-4.63-2.65.22-5.5.24-6.07,3.7s1.77,4.72,4.35,5.66c4.45,1.62,9.05,2.87,13.42,4.69,7.93,3.32,14.84,7.81,17.05,17,3,12.46-2.66,24.32-14.59,28.57-15.22,5.43-30.42,5-45.05-2.45A56.71,56.71,0,0,1,278.37,81L289,63.16c4.34,2.32,8.28,5,12.64,6.58a26.66,26.66,0,0,0,10.9,1c1.49-.12,3.69-2.53,3.91-4.12s-1.23-4-2.69-5.08c-2.15-1.58-5-2.14-7.46-3.38a141.27,141.27,0,0,1-13.77-7.44c-7.55-5-9.61-12.37-8.27-21,.1-.61.22-1.22.3-1.83,0-.09-.08-.2-.27-.62l-4.37,8.47c-4.29-1.1-8.16-2.69-12.12-3-11.21-.83-17.93,5.67-18,17s0,23,0,34.5Z"/><text class="cls-2" transform="translate(170.08 -48.79)"><tspan class="cls-3">e</tspan><tspan x="26.11" y="0">xp</tspan><tspan class="cls-3" x="81.02" y="0">r</tspan><tspan x="99.89" y="0">ess</tspan></text></svg>