<svg id="Layer_1" data-name="Layer 1" xmlns="http://www.w3.org/2000/svg" viewBox="0 0 566.93 159.32"><defs><style>.cls-1{fill:#fe3131;}.cls-2{fill:#18ca95;}.cls-3{font-size:181.83px;font-family:Ubuntu-Bold, Ubuntu;font-weight:700;}.cls-4{font-size:53.23px;font-family:Ubuntu-Regular, Ubuntu;}</style></defs><path class="cls-1" d="M45.48,53.47c9.46.51,18.92,1.18,28.4,1.47,3.52.1,5.24.67,5,4.84-1.17,18.7-1.92,37.42-3.07,56.12-.45,7.38-4.93,10.55-13.13,10-7.18-.46-10.32-4-9.88-11.55.63-10.82,1.11-21.66,2.33-32.41.53-4.65-1-5.2-4.93-5.24-10.83-.12-21.66-.56-32.49-1C10,75.46,5.75,71.09,5.92,64c.18-7.73,4.49-11.86,12.49-11.61,9,.27,18,.77,27.06,1.18Z"/><path class="cls-2" d="M66.86,18.43c14.42.75,28.83,1.7,43.26,2.16,4.92.16,5.88,2,5.59,6.53-1.17,18.24-1.93,36.51-3,54.76-.39,6.86-4.91,10.3-12.57,9.92-7-.36-10.82-4.16-10.43-11.21.58-10.36,1.34-20.72,2.44-31,.52-5-.23-7.23-6.06-7.11C75.76,42.66,65.38,42,55,41.6c-8.1-.29-12-4.47-11.71-12.39s4-11.25,12.06-11.12c3.83.06,7.67,0,11.5,0Z"/><text class="cls-3" transform="translate(138.8 106.19)">mars</text><text class="cls-4" transform="translate(360.49 146.76)">express</text></svg>